<?xml version="1.0" encoding="utf-8"?>
<!-- Generator: Adobe Illustrator 17.0.0, SVG Export Plug-In . SVG Version: 6.00 Build 0)  -->
<!DOCTYPE svg PUBLIC "-//W3C//DTD SVG 1.1//EN" "http://www.w3.org/Graphics/SVG/1.1/DTD/svg11.dtd">
<svg version="1.1" id="Layer_1" xmlns="http://www.w3.org/2000/svg" xmlns:xlink="http://www.w3.org/1999/xlink" x="0px" y="0px"
	 width="264.91px" height="35.329px" viewBox="0 0 264.91 35.329" enable-background="new 0 0 264.91 35.329" xml:space="preserve">
<g>
	<path fill="#383838" d="M27.066,23.24L16.047,2.764c0.168-0.28,0.267-0.602,0.267-0.936C16.313,0.82,15.492,0,14.487,0
		c-0.346,0-0.665,0.102-0.941,0.27C13.27,0.102,12.949,0,12.604,0c-1.008,0-1.827,0.82-1.827,1.827c0,0.368,0.114,0.713,0.31,1.007
		L0.105,23.241c-0.197,0.371-0.111,0.829,0.214,1.099c2.157,1.804,7.761,7.134,7.761,10.105c0,0.488,0.395,0.885,0.885,0.885
		c0.488,0,0.885-0.396,0.885-0.885c0-1.905-1.439-4.431-4.274-7.507c-1.421-1.542-2.826-2.825-3.573-3.484L12.661,3.645v17.633
		c-0.501,0.305-0.853,0.831-0.853,1.459c0,0.958,0.779,1.737,1.738,1.737c0.957,0,1.736-0.779,1.736-1.737
		c0-0.628-0.352-1.154-0.851-1.459V3.497l10.738,19.957c-0.747,0.659-2.152,1.942-3.573,3.484c-2.836,3.076-4.275,5.602-4.275,7.507
		c0,0.488,0.397,0.885,0.886,0.885c0.489,0,0.885-0.396,0.885-0.885c0-2.972,5.602-8.302,7.761-10.105
		C27.174,24.07,27.263,23.611,27.066,23.24z"/>
	<path fill="#383838" d="M57.076,24.311c0-1.073-0.38-1.934-1.14-2.586s-2.091-1.264-3.993-1.839
		c-3.32-0.958-5.829-2.094-7.527-3.409c-1.698-1.315-2.547-3.116-2.547-5.401s0.974-4.153,2.921-5.602
		C46.737,4.025,49.223,3.3,52.25,3.3c3.064,0,5.561,0.814,7.489,2.442c1.928,1.628,2.86,3.636,2.796,6.024l-0.038,0.115h-5.42
		c0-1.29-0.431-2.333-1.293-3.132c-0.862-0.798-2.072-1.197-3.63-1.197c-1.494,0-2.65,0.332-3.467,0.996
		c-0.817,0.664-1.226,1.513-1.226,2.547c0,0.945,0.437,1.721,1.312,2.327c0.875,0.607,2.385,1.248,4.53,1.925
		c3.077,0.856,5.408,1.986,6.991,3.39c1.583,1.405,2.375,3.25,2.375,5.535c0,2.388-0.942,4.271-2.825,5.65
		c-1.883,1.379-4.37,2.069-7.46,2.069c-3.039,0-5.688-0.782-7.949-2.346c-2.26-1.564-3.358-3.757-3.294-6.579l0.038-0.115h5.439
		c0,1.66,0.508,2.876,1.523,3.649c1.015,0.773,2.429,1.159,4.242,1.159c1.519,0,2.681-0.313,3.486-0.939
		S57.076,25.358,57.076,24.311z"/>
	<path fill="#383838" d="M79.894,24.177l0.345,1.513h0.115l0.326-1.475l6.072-20.513h5.899l-9.481,27.887h-5.746L67.961,3.702h5.899
		L79.894,24.177z"/>
	<path fill="#383838" d="M119.758,27.778c-0.83,1.098-2.123,2.075-3.879,2.93c-1.756,0.856-3.974,1.283-6.656,1.283
		c-3.409,0-6.193-1.06-8.351-3.179s-3.237-4.871-3.237-8.255v-5.823c0-3.371,1.037-6.119,3.112-8.245
		c2.075-2.126,4.747-3.189,8.016-3.189c3.396,0,5.998,0.827,7.805,2.48s2.729,3.827,2.768,6.522l-0.038,0.115h-5.267
		c-0.102-1.481-0.575-2.653-1.417-3.515c-0.843-0.862-2.075-1.293-3.697-1.293c-1.711,0-3.09,0.661-4.137,1.981
		s-1.571,3.02-1.571,5.1v5.854c0,2.118,0.543,3.837,1.628,5.157c1.085,1.322,2.547,1.981,4.386,1.981
		c1.302,0,2.349-0.134,3.141-0.401c0.792-0.268,1.392-0.599,1.8-0.993v-5.157h-4.941v-3.869h10.534V27.778z"/>
	<path fill="#2196F3" d="M140.059,20.002v11.588h-2.279V3.702h9.596c2.924,0,5.187,0.744,6.79,2.231s2.404,3.457,2.404,5.909
		c0,2.477-0.801,4.456-2.404,5.937s-3.866,2.222-6.79,2.222H140.059z M140.059,18.048h7.316c2.298,0,4.025-0.584,5.181-1.753
		s1.733-2.64,1.733-4.415c0-1.788-0.575-3.272-1.724-4.453s-2.879-1.772-5.19-1.772h-7.316V18.048z"/>
	<path fill="#2196F3" d="M167.511,31.589h-2.279V1.71h2.279V31.589z"/>
	<path fill="#2196F3" d="M185.158,31.991c-2.592,0-4.747-0.958-6.464-2.873s-2.576-4.341-2.576-7.278v-1.053
		c0-2.962,0.852-5.42,2.557-7.374c1.705-1.954,3.77-2.93,6.196-2.93c2.541,0,4.539,0.804,5.995,2.413
		c1.456,1.609,2.183,3.754,2.183,6.435v1.954h-14.633v0.554c0,2.332,0.619,4.281,1.858,5.848s2.867,2.351,4.884,2.351
		c1.43,0,2.65-0.198,3.658-0.594s1.871-0.964,2.586-1.705l0.977,1.571c-0.779,0.82-1.765,1.472-2.959,1.957
		C188.225,31.749,186.805,31.991,185.158,31.991z M184.871,12.436c-1.698,0-3.122,0.646-4.271,1.939
		c-1.149,1.291-1.82,2.913-2.011,4.86l0.038,0.096h12.143v-0.573c0-1.796-0.53-3.298-1.59-4.507
		C188.12,13.041,186.684,12.436,184.871,12.436z"/>
	<path fill="#2196F3" d="M214.239,31.589c-0.153-0.702-0.262-1.309-0.326-1.82c-0.064-0.511-0.096-1.028-0.096-1.551
		c-0.766,1.085-1.788,1.986-3.064,2.701s-2.713,1.073-4.309,1.073c-2.017,0-3.585-0.536-4.702-1.609
		c-1.117-1.073-1.676-2.509-1.676-4.309c0-1.915,0.827-3.448,2.48-4.597c1.654-1.149,3.885-1.724,6.694-1.724h4.578v-2.567
		c0-1.481-0.476-2.643-1.427-3.486c-0.951-0.843-2.282-1.264-3.993-1.264c-1.596,0-2.921,0.402-3.974,1.207s-1.58,1.788-1.58,2.95
		l-2.107-0.019l-0.038-0.115c-0.077-1.545,0.629-2.927,2.116-4.147c1.488-1.219,3.381-1.829,5.679-1.829
		c2.286,0,4.124,0.581,5.516,1.743s2.088,2.828,2.088,4.999v10.189c0,0.728,0.042,1.436,0.124,2.126
		c0.083,0.69,0.22,1.373,0.412,2.049H214.239z M206.711,29.961c1.647,0,3.103-0.386,4.367-1.159
		c1.264-0.773,2.177-1.759,2.739-2.959v-4.329h-4.616c-2.081,0-3.744,0.444-4.989,1.331s-1.867,1.989-1.867,3.304
		c0,1.124,0.386,2.04,1.159,2.748C204.276,29.607,205.345,29.961,206.711,29.961z"/>
	<path fill="#2196F3" d="M238.146,26.313c0-0.969-0.399-1.816-1.197-2.543c-0.798-0.726-2.238-1.318-4.319-1.776
		c-2.477-0.536-4.306-1.245-5.487-2.126c-1.181-0.881-1.772-2.126-1.772-3.735c0-1.583,0.667-2.921,2.001-4.013
		s3.1-1.638,5.296-1.638c2.337,0,4.188,0.578,5.554,1.733s2.017,2.602,1.954,4.338l-0.038,0.115h-2.126
		c0-1.136-0.482-2.126-1.446-2.969c-0.964-0.843-2.263-1.264-3.898-1.264c-1.673,0-2.927,0.359-3.764,1.077
		c-0.836,0.717-1.255,1.559-1.255,2.525c0,0.953,0.361,1.74,1.082,2.362c0.721,0.622,2.161,1.17,4.319,1.639
		c2.464,0.551,4.309,1.304,5.535,2.258s1.839,2.25,1.839,3.89c0,1.73-0.699,3.13-2.097,4.199c-1.398,1.069-3.246,1.604-5.545,1.604
		c-2.515,0-4.491-0.6-5.928-1.8s-2.116-2.63-2.04-4.29l0.038-0.115h2.107c0.089,1.488,0.699,2.568,1.829,3.242
		s2.461,1.01,3.993,1.01c1.66,0,2.969-0.362,3.926-1.089C237.668,28.223,238.146,27.344,238.146,26.313z"/>
	<path fill="#2196F3" d="M257.019,31.991c-2.592,0-4.747-0.958-6.464-2.873s-2.576-4.341-2.576-7.278v-1.053
		c0-2.962,0.852-5.42,2.557-7.374c1.705-1.954,3.77-2.93,6.196-2.93c2.541,0,4.539,0.804,5.995,2.413
		c1.456,1.609,2.183,3.754,2.183,6.435v1.954h-14.633v0.554c0,2.332,0.619,4.281,1.858,5.848s2.867,2.351,4.884,2.351
		c1.43,0,2.65-0.198,3.658-0.594s1.871-0.964,2.586-1.705l0.977,1.571c-0.779,0.82-1.765,1.472-2.959,1.957
		C260.086,31.749,258.666,31.991,257.019,31.991z M256.731,12.436c-1.698,0-3.122,0.646-4.271,1.939
		c-1.149,1.291-1.82,2.913-2.011,4.86l0.038,0.096h12.143v-0.573c0-1.796-0.53-3.298-1.59-4.507
		C259.981,13.041,258.544,12.436,256.731,12.436z"/>
</g>
</svg>
