<svg viewBox="0 0 10 10" style="display:none;"><symbol viewBox="624 379.429 32 41.143" id="shape-delete"><title>delete</title> <g id="delete-delete"> <path d="M626.286,416c0,2.514,2.057,4.571,4.571,4.571h18.286c2.514,0,4.571-2.057,4.571-4.571v-27.429h-27.429V416z M656,381.714
		h-8l-2.286-2.286h-11.429L632,381.714h-8v4.571h32V381.714z"/> </g> </symbol><symbol viewBox="624 391.947 32 29.44" id="shape-heart"><title>heart</title> <g id="heart-favorite"> <path d="M640,421.387l-2.24-2.24c-8.32-7.36-13.76-12.32-13.76-18.4c0-4.96,3.84-8.8,8.8-8.8c2.72,0,5.44,1.28,7.2,3.36
		c1.76-2.08,4.48-3.36,7.2-3.36c4.96,0,8.8,3.84,8.8,8.8c0,6.08-5.44,11.04-13.76,18.4L640,421.387z"/> </g> </symbol></svg>